<svg width="36" height="36" viewBox="0 0 36 36" fill="none" xmlns="http://www.w3.org/2000/svg">
<g id="Moonizens Genesis Icon">
<circle id="Ellipse 15" cx="18" cy="18" r="5.75" stroke="#E6F4F1" stroke-width="0.5"/>
<circle id="Ellipse 16" cx="18" cy="17" r="2" fill="#E6F4F1"/>
<g id="Vector">
<path d="M22 18.5507C22 20.4484 20.2091 21.9868 18 21.9868C15.7909 21.9868 14 20.4484 14 18.5507C14 16.653 14 20.2688 18 20.2688C22 20.2688 22 16.653 22 18.5507Z" fill="#E6F4F1"/>
<path d="M18 28L17 21.1278H19L18 28Z" fill="#E6F4F1"/>
</g>
<path id="Vector 13" d="M32.7273 14.2607C30.4941 13.0621 28.7245 13.0355 24.5455 14.2607C27.7226 11.5022 30.2437 11.3363 36 13.3911L18 36L9 24.6956C9 24.6956 15.375 32.449 18 32.3958C20.625 32.3427 32.7273 14.2607 32.7273 14.2607Z" fill="#D9D9D9"/>
<path id="Vector 14" d="M3.27273 21.7393C5.50586 22.9379 7.27545 22.9645 11.4545 21.7393C8.27742 24.4978 5.75632 24.6637 0 22.6089L18 0L27 11.3044C27 11.3044 20.625 3.551 18 3.60416C15.375 3.65733 3.27273 21.7393 3.27273 21.7393Z" fill="#D9D9D9"/>
<g id="Vector_2">
<path d="M18 8V14L17 12.5L18 8Z" fill="#E6F4F1"/>
<path d="M18 8V14L19 12.5L18 8Z" fill="#E6F4F1"/>
</g>
<g id="Vector_3">
<path d="M24.5357 11.7071L21.7073 14.5355V13.1213L24.5357 11.7071Z" fill="#E6F4F1"/>
<path d="M24.5357 11.7071L21.7073 14.5355H23.1215L24.5357 11.7071Z" fill="#E6F4F1"/>
</g>
<g id="Vector_4">
<path d="M24.5357 24.5356L21.7073 21.7071V23.1214L24.5357 24.5356Z" fill="#E6F4F1"/>
<path d="M24.5357 24.5356L21.7073 21.7071H23.1215L24.5357 24.5356Z" fill="#E6F4F1"/>
</g>
<g id="Vector_5">
<path d="M11.707 11.7071L14.5354 14.5355V13.1213L11.707 11.7071Z" fill="#E6F4F1"/>
<path d="M11.707 11.7071L14.5354 14.5355H13.1212L11.707 11.7071Z" fill="#E6F4F1"/>
</g>
<g id="Vector_6">
<path d="M11.707 24.5356L14.5354 21.7071V23.1214L11.707 24.5356Z" fill="#E6F4F1"/>
<path d="M11.707 24.5356L14.5354 21.7071H13.1212L11.707 24.5356Z" fill="#E6F4F1"/>
</g>
</g>
</svg>
